<?xml version="1.0" encoding="utf-8"?>
<!-- Generator: Adobe Illustrator 24.0.3, SVG Export Plug-In . SVG Version: 6.00 Build 0)  -->
<svg version="1.1" id="Layer_1" xmlns="http://www.w3.org/2000/svg" xmlns:xlink="http://www.w3.org/1999/xlink" x="0px" y="0px"
	 viewBox="0 0 589 203" style="enable-background:new 0 0 589 203;" xml:space="preserve">
<style type="text/css">
	.st0{clip-path:url(#SVGID_2_);}
	.st1{fill:#A6A6A6;}
	.st2{fill:#FFFFFF;}
</style>
<g>
	<defs>
		<rect id="SVGID_1_" width="589" height="203"/>
	</defs>
	<clipPath id="SVGID_2_">
		<use xlink:href="#SVGID_1_"  style="overflow:visible;"/>
	</clipPath>
	<g id="Mac_Badge_45" class="st0">
		<g id="Group_39" transform="translate(0 0)">
			<path id="Path_158" class="st1" d="M537.6,5H46.7c-1.5,0-3,0-4.4,0.1c-3.2,0-6.5,0.3-9.7,0.8c-3.2,0.5-6.3,1.5-9.2,3
				c-2.9,1.5-5.5,3.4-7.8,5.7c-2.3,2.3-4.2,4.9-5.7,7.8c-1.5,2.9-2.5,6-3,9.2c-0.5,3.2-0.8,6.4-0.9,9.7c0,1.5,0,3-0.1,4.5v111.6
				c0,1.5,0,2.9,0.1,4.4c0,3.2,0.3,6.5,0.9,9.7c0.5,3.2,1.5,6.3,3,9.2c1.5,2.9,3.4,5.5,5.7,7.8c2.3,2.3,4.9,4.2,7.8,5.7
				c2.9,1.5,6,2.5,9.2,3c3.2,0.5,6.4,0.8,9.7,0.9h505c3.2,0,6.5-0.3,9.7-0.9c3.2-0.5,6.3-1.6,9.2-3c2.9-1.5,5.5-3.4,7.8-5.7
				c2.3-2.3,4.2-4.9,5.7-7.8c1.5-2.9,2.5-6,3-9.2c0.5-3.2,0.8-6.4,0.9-9.7V41.3c-0.1-3.2-0.4-6.5-0.9-9.7c-0.5-3.2-1.5-6.3-3-9.2
				c-3-5.8-7.7-10.6-13.5-13.5c-2.9-1.5-6-2.5-9.2-3c-3.2-0.5-6.4-0.8-9.7-0.8c-1.5,0-3-0.1-4.5-0.1L537.6,5L537.6,5z"/>
			<path id="Path_159" d="M46.7,193.5h-4.4c-3,0-6-0.3-9-0.8c-2.8-0.5-5.5-1.4-8-2.6c-2.5-1.3-4.8-2.9-6.8-4.9c-2-2-3.7-4.2-4.9-6.7
				c-1.3-2.5-2.2-5.2-2.6-8c-0.5-3-0.8-6-0.8-9c0-1-0.1-4.4-0.1-4.4V45.5c0,0,0-3.3,0.1-4.3c0-3,0.3-6,0.8-9c0.5-2.8,1.3-5.5,2.6-8
				c1.3-2.5,2.9-4.8,4.9-6.8c2-2,4.3-3.7,6.8-4.9c2.5-1.3,5.2-2.2,8-2.6c3-0.5,6-0.8,9.1-0.8L46.8,9h496.1l4.4,0.1c3,0,6,0.3,9,0.8
				c2.8,0.5,5.5,1.4,8.1,2.6c5,2.6,9.1,6.7,11.7,11.7c1.3,2.5,2.1,5.2,2.6,8c0.5,3,0.8,6.1,0.8,9.1v120.2c-0.1,3-0.3,6-0.8,8.9
				c-0.4,2.8-1.3,5.5-2.6,8.1c-1.3,2.5-2.9,4.7-4.9,6.7c-2,2-4.3,3.7-6.8,4.9c-2.5,1.3-5.2,2.2-8,2.7c-3,0.5-6,0.7-9,0.8L46.7,193.5
				L46.7,193.5z"/>
			<g id="_Group_" transform="translate(2.46 3.82)">
				<g id="_Group_2">
					<path id="_Path_" class="st2" d="M123,98.9c-0.1-13.3,10.9-19.7,11.4-20c-4.4-6.3-11.5-10.2-19.2-10.4
						c-8.1-0.8-15.9,4.8-20.1,4.8s-10.6-4.8-17.4-4.6c-9,0.3-17.2,5.3-21.6,13.1c-9.3,16.1-2.4,39.9,6.6,52.9
						c4.5,6.4,9.7,13.5,16.5,13.3s9.2-4.3,17.3-4.3s10.3,4.3,17.3,4.1c7.2-0.1,11.7-6.4,16-12.9c3.2-4.6,5.7-9.6,7.3-14.9
						C136.9,120,123.2,114.8,123,98.9z"/>
					<path id="_Path_2" class="st2" d="M109.8,59.8c3.9-4.7,5.8-10.7,5.4-16.8c-5.2,0.2-11.7,3.6-15.5,8c-3.3,3.9-6.3,10.2-5.5,16.2
						C100.1,67.7,106.1,64.3,109.8,59.8z"/>
				</g>
			</g>
			<g id="Group_38" transform="translate(1466 -3435.47)">
				<g id="Group_37" transform="translate(-1303 3533.337)">
					<path id="Path_134" class="st2" d="M38.2,44.6V12.3H38l-13.2,32h-5l-13.3-32H6.2v32.3H0V0.7h7.9l14.2,34.6h0.2L36.5,0.7h7.9
						v43.9H38.2z"/>
					<path id="Path_135" class="st2" d="M49.6,35.5c0-5.6,4.3-9,11.9-9.4l8.8-0.5v-2.4c0-3.6-2.3-5.6-6.3-5.6
						c-3.1-0.4-5.9,1.5-6.7,4.5h-6.1c0.2-5.8,5.6-9.9,13-9.9c7.6,0,12.7,4.2,12.7,10.5v21.9h-6.3v-5.3h-0.2
						c-2.1,3.6-5.9,5.9-10.1,5.8c-5.3,0.5-10.1-3.4-10.6-8.7C49.7,36.1,49.6,35.8,49.6,35.5z M70.3,32.6v-2.5l-7.9,0.5
						c-3.9,0.2-6.1,1.9-6.1,4.7c0,2.8,2.3,4.6,5.8,4.6c4.2,0.3,7.9-2.9,8.2-7.1C70.3,32.8,70.3,32.7,70.3,32.6z"/>
					<path id="Path_136" class="st2" d="M104.4,23.6c-0.6-3.6-3.9-6.2-7.5-5.9c-5,0-8.4,4.2-8.4,10.9c0,6.8,3.4,10.9,8.5,10.9
						c3.6,0.4,6.9-2.2,7.5-5.7h6.3c-0.8,6.9-7,11.9-13.9,11.2c-9.1,0-15.1-6.2-15.1-16.4c0-9.9,6-16.4,15-16.4
						c6.9-0.6,13.1,4.5,13.9,11.4L104.4,23.6z"/>
					<path id="Path_137" class="st2" d="M153.4,32.8h-16.7l-4,11.9h-7.1l15.8-43.9h7.4l15.8,43.9h-7.2L153.4,32.8z M138.4,27.3h13.3
						L145.1,8h-0.2L138.4,27.3z"/>
					<path id="Path_138" class="st2" d="M198.8,28.6c0,9.9-5.3,16.3-13.4,16.3c-4.2,0.2-8.1-2-10.1-5.6h-0.2v15.8h-6.6V12.6h6.4v5.3
						h0.1c2.1-3.6,6-5.8,10.2-5.7C193.5,12.3,198.8,18.7,198.8,28.6z M192.1,28.6c0-6.5-3.3-10.7-8.5-10.7c-5,0-8.4,4.3-8.4,10.7
						c0,6.4,3.4,10.8,8.4,10.8C188.7,39.4,192.1,35.2,192.1,28.6z"/>
					<path id="Path_139" class="st2" d="M234,28.6c0,9.9-5.3,16.3-13.4,16.3c-4.2,0.2-8.1-2-10.1-5.6h-0.2v15.8h-6.6V12.6h6.4v5.3
						h0.1c2.1-3.6,6-5.8,10.2-5.7C228.7,12.3,234,18.7,234,28.6z M227.3,28.6c0-6.5-3.3-10.7-8.5-10.7c-5,0-8.4,4.3-8.4,10.7
						c0,6.4,3.4,10.8,8.4,10.8C224,39.4,227.3,35.2,227.3,28.6z"/>
					<path id="Path_140" class="st2" d="M257.3,32.4c0.5,4.4,4.7,7.2,10.5,7.2c5.5,0,9.5-2.9,9.5-6.8c0-3.4-2.4-5.4-8.1-6.8
						l-5.7-1.4c-8.1-1.9-11.8-5.7-11.8-11.8c0-7.6,6.6-12.8,16-12.8c9.3,0,15.6,5.2,15.8,12.8h-6.6c-0.4-4.4-4-7-9.3-7
						c-5.3,0-8.9,2.7-8.9,6.6c0,3.1,2.3,4.9,8,6.3l4.8,1.2c9,2.1,12.7,5.7,12.7,12.2c0,8.2-6.5,13.4-16.9,13.4
						c-9.7,0-16.3-5-16.7-13L257.3,32.4z"/>
					<path id="Path_141" class="st2" d="M298.4,5v7.6h6.1v5.2h-6.1v17.6c0,2.7,1.2,4,3.9,4c0.7,0,1.4-0.1,2.2-0.2v5.2
						c-1.2,0.2-2.4,0.3-3.6,0.3c-6.5,0-9-2.4-9-8.6V17.8h-4.7v-5.2h4.7V5H298.4z"/>
					<path id="Path_142" class="st2" d="M308,28.6c0-10.1,5.9-16.4,15.2-16.4c9.3,0,15.2,6.3,15.2,16.4c0,10.1-5.9,16.4-15.2,16.4
						S308,38.7,308,28.6z M331.7,28.6c0-6.9-3.2-11-8.5-11c-5.3,0-8.5,4.1-8.5,11c0,6.9,3.2,11,8.5,11
						C328.5,39.6,331.7,35.6,331.7,28.6L331.7,28.6z"/>
					<path id="Path_143" class="st2" d="M343.8,12.6h6.3v5.4h0.2c0.9-3.5,4.1-5.9,7.7-5.8c0.8,0,1.5,0.1,2.2,0.2v6.1
						c-1-0.3-2-0.4-3-0.4c-3.7-0.1-6.7,2.7-6.9,6.3c0,0.3,0,0.7,0,1v19h-6.6V12.6z"/>
					<path id="Path_144" class="st2" d="M390.4,35.2c-0.9,5.8-6.5,9.8-13.8,9.8c-9.3,0-15.1-6.2-15.1-16.2c0-10,5.8-16.5,14.8-16.5
						c8.9,0,14.4,6.1,14.4,15.8v2.2h-22.6v0.4c-0.4,4.6,3,8.6,7.6,9c0.3,0,0.7,0,1,0c3.2,0.3,6.2-1.5,7.4-4.5L390.4,35.2z
						 M368.2,25.7h16c0.2-4.2-3-7.9-7.3-8.1c-0.2,0-0.4,0-0.6,0C371.9,17.5,368.3,21.1,368.2,25.7C368.2,25.6,368.2,25.6,368.2,25.7
						L368.2,25.7z"/>
				</g>
				<g id="_Group_3" transform="translate(-1478.6 3446.82)">
					<path id="Path_33" class="st2" d="M186,43.1c8.5,0,13.5,5.2,13.5,14.3s-5,14.5-13.5,14.5h-10.4V43.1H186z M180.1,67.8h5.4
						c6,0,9.5-3.7,9.5-10.3s-3.5-10.3-9.5-10.3h-5.4V67.8z"/>
					<path id="Path_34" class="st2" d="M204.6,61c0-7,3.9-11.3,10.2-11.3S225.1,54,225.1,61s-3.9,11.3-10.2,11.3S204.6,68,204.6,61z
						 M220.6,61c0-4.7-2.1-7.5-5.8-7.5S209,56.3,209,61s2.1,7.5,5.8,7.5S220.6,65.7,220.6,61z"/>
					<path id="Path_35" class="st2" d="M252.3,71.8h-4.4l-4.5-16H243l-4.5,16h-4.4l-6-21.7h4.4l3.9,16.6h0.3l4.5-16.6h4.1l4.5,16.6
						h0.3l3.9-16.6h4.3L252.3,71.8z"/>
					<path id="Path_36" class="st2" d="M263.3,50.1h4.1v3.5h0.3c1.1-2.4,3.2-3.9,6.5-3.9c4.9,0,7.5,2.9,7.5,8.1v14h-4.3v-13
						c0-3.5-1.5-5.2-4.7-5.2s-5.2,2.1-5.2,5.5v12.7h-4.3V50.1z"/>
					<path id="Path_37" class="st2" d="M288.5,41.7h4.3v30.2h-4.3V41.7z"/>
					<path id="Path_38" class="st2" d="M298.8,61c0-7,3.9-11.3,10.2-11.3S319.3,54,319.3,61s-3.9,11.3-10.3,11.3S298.8,68,298.8,61z
						 M314.9,61c0-4.7-2.1-7.5-5.8-7.5s-5.8,2.8-5.8,7.5s2.1,7.5,5.8,7.5S314.9,65.7,314.9,61z"/>
					<path id="Path_39" class="st2" d="M323.8,65.7c0-3.9,2.9-6.2,8.1-6.5l5.9-0.3V57c0-2.3-1.5-3.6-4.4-3.6c-2.4,0-4,0.9-4.5,2.4
						h-4.1c0.4-3.7,4-6.1,8.9-6.1c5.5,0,8.5,2.7,8.5,7.3v14.8h-4.1v-3h-0.3c-1.4,2.2-3.9,3.5-6.5,3.4
						C326.8,72.2,323.8,69.7,323.8,65.7z M337.8,63.8V62l-5.3,0.3c-3,0.2-4.4,1.2-4.4,3.1c0,1.9,1.7,3.1,4,3.1
						C335.3,68.6,337.7,66.5,337.8,63.8L337.8,63.8z"/>
					<path id="Path_40" class="st2" d="M347.6,61c0-6.9,3.5-11.2,9-11.2c2.8-0.1,5.4,1.4,6.6,3.8h0.3v-12h4.3v30.2h-4.1v-3.4h-0.3
						c-1.4,2.4-4,3.9-6.8,3.8C351.1,72.2,347.6,67.8,347.6,61z M352.1,61c0,4.6,2.2,7.4,5.8,7.4s5.8-2.8,5.8-7.3s-2.2-7.4-5.8-7.4
						S352.1,56.4,352.1,61z"/>
					<path id="Path_41" class="st2" d="M385.6,61c0-7,3.9-11.3,10.2-11.3S406.1,54,406.1,61s-3.9,11.3-10.2,11.3S385.6,68,385.6,61z
						 M401.7,61c0-4.7-2.1-7.5-5.8-7.5s-5.8,2.8-5.8,7.5s2.1,7.5,5.8,7.5S401.7,65.7,401.7,61z"/>
					<path id="Path_42" class="st2" d="M411.9,50.1h4.1v3.5h0.3c1-2.4,3.2-3.9,6.5-3.9c4.8,0,7.5,2.9,7.5,8.1v14H426v-13
						c0-3.5-1.5-5.2-4.7-5.2s-5.2,2.1-5.2,5.5v12.7h-4.3L411.9,50.1z"/>
					<path id="Path_43" class="st2" d="M454.5,44.7v5.5h4.7v3.6h-4.7V65c0,2.3,0.9,3.3,3.1,3.3c0.5,0,1.1,0,1.6-0.1v3.6
						c-0.8,0.1-1.5,0.2-2.3,0.2c-4.8,0-6.7-1.7-6.7-5.9V53.8h-3.5v-3.6h3.5v-5.5H454.5z"/>
					<path id="Path_44" class="st2" d="M465.1,41.7h4.2v12h0.3c1.1-2.4,3.4-3.9,6.6-3.9c4.6,0,7.5,2.9,7.5,8.1v14h-4.3v-13
						c0-3.5-1.6-5.2-4.6-5.2c-3.5,0-5.5,2.2-5.5,5.5v12.7h-4.3L465.1,41.7z"/>
					<path id="Path_45" class="st2" d="M508.8,66c-1,3.9-4.4,6.3-9.4,6.3c-6.2,0-10-4.3-10-11.2s3.9-11.3,10-11.3s9.6,4.1,9.6,10.9
						v1.5h-15.3v0.2c0.1,3.8,2.4,6.2,5.8,6.2c2.6,0,4.4-0.9,5.2-2.6L508.8,66z M493.7,59h11c-0.1-3.4-2.2-5.6-5.4-5.6
						S493.9,55.6,493.7,59z"/>
				</g>
			</g>
		</g>
	</g>
</g>
</svg>
